<svg xmlns="http://www.w3.org/2000/svg" viewBox="0 0 512 512" role="img" aria-label="H‰st">
  <rect width="512" height="512" rx="96" fill="#f5edd9"/>
  <path fill="#5c4033" d="M128 288c16-80 72-128 152-128 48 0 88 20 112 52 12-8 28-12 44-12 24 0 48 10 64 28l-40 36c-8-8-20-12-32-12-8 0-16 2-22 6 10 24 16 52 16 82 0 28-6 54-16 78-20-6-42-10-64-10-48 0-92 18-124 48-26-34-42-78-42-126 0-18 2-34 6-50-24 8-46 22-64 42l-36-40c20-22 46-38 76-46zm152 24c-44 0-80 36-80 80s36 80 80 80 80-36 80-80-36-80-80-80z"/>
  <circle cx="200" cy="196" r="14" fill="#2d1f18"/>
</svg>
