<svg xmlns="http://www.w3.org/2000/svg" viewBox="0 0 200 160" fill="none" aria-hidden="true">
  <ellipse cx="100" cy="130" rx="72" ry="18" fill="#d4c4a8" opacity="0.55"/>
  <path fill="#7a5a45" d="M48 98c-4-28 8-52 28-58 6-18 22-28 38-26 10 1 18 8 22 18 14-6 30-4 42 8 10 10 12 26 6 40-4 10-12 17-22 20 2 8 0 18-6 26-8 12-22 18-36 16-6-1-12-4-16-8-4 14-16 24-30 26-20 3-38-8-44-26-2-6-2-14 2-20-4-4-6-10-6-16Z"/>
  <path fill="#5c4033" d="m62 52 8-26c2-6 8-10 14-8s8 10 6 16l-6 20c-8-4-16-4-22-2Z"/>
  <ellipse cx="118" cy="48" rx="14" ry="12" fill="#5c4033"/>
  <circle cx="128" cy="46" r="3" fill="#2d1f18"/>
  <path stroke="#5c4033" stroke-width="4" stroke-linecap="round" d="M132 44c8-2 14 2 18 10M38 108c-6 8-8 18-4 28"/>
  <path fill="#6d5040" d="M78 108c10 8 24 10 36 4 4-2 8-6 10-10-6 10-18 16-30 14-8-1-14-4-16-8Z"/>
</svg>
