<svg xmlns="http://www.w3.org/2000/svg" viewBox="0 0 200 248" fill="none" aria-hidden="true">
  <ellipse cx="100" cy="228" rx="52" ry="11" fill="#c9b896" opacity="0.4"/>

  <!-- Svans -->
  <path
    fill="#4a3428"
    d="M44 158c-10 14-12 32-4 46 4 6 10 10 17 11 2-20-2-40-13-57Z"
  />

  <!-- Bakben (bakom kroppen) -->
  <path fill="#4a3428" d="M76 162h14v48c0 5 4 9 9 9h4v-52l-6-34h-21v29Z"/>
  <path fill="#4a3428" d="M110 162h14v48c0 5 4 9 9 9h4v-52l-6-34h-21v29Z"/>
  <ellipse cx="86" cy="226" rx="13" ry="7" fill="#3d2b22"/>
  <ellipse cx="124" cy="226" rx="13" ry="7" fill="#3d2b22"/>

  <!-- Bukhår / mage (ljusare) -->
  <ellipse cx="100" cy="138" rx="32" ry="36" fill="#8f6f56" opacity="0.45"/>

  <!-- Kropp -->
  <path
    fill="#7a5a45"
    d="M58 108c-8 36 4 68 42 74s54-22 58-58c2-12 1-24-4-34-22 12-48 14-72 8-10-2-20 2-24 10Z"
  />

  <!-- Välkomnande vänster arm + hov -->
  <path
    stroke="#4a3428"
    stroke-width="15"
    stroke-linecap="round"
    d="M70 112 22 44"
  />
  <circle cx="18" cy="40" r="15" fill="#7a5a45" stroke="#4a3428" stroke-width="3"/>
  <circle cx="18" cy="40" r="6" fill="#c9a882"/>

  <!-- Välkomnande höger arm + hov -->
  <path
    stroke="#4a3428"
    stroke-width="15"
    stroke-linecap="round"
    d="M130 112 178 44"
  />
  <circle cx="182" cy="40" r="15" fill="#7a5a45" stroke="#4a3428" stroke-width="3"/>
  <circle cx="182" cy="40" r="6" fill="#c9a882"/>

  <!-- Hals -->
  <path
    fill="#7a5a45"
    d="M76 108c4-22 14-40 32-48 8 4 14 14 16 26-10 8-18 20-22 34l-26-12Z"
  />

  <!-- Huvud -->
  <ellipse cx="100" cy="56" rx="36" ry="32" fill="#7a5a45"/>

  <!-- Mule (ljus) -->
  <ellipse cx="100" cy="66" rx="20" ry="16" fill="#b89578"/>

  <!-- Öron -->
  <path
    fill="#6b4d3c"
    d="M64 34 54 8c-2-5 4-9 9-6l16 8 2 22c-8 2-14 2-17 2Z"
  />
  <path
    fill="#6b4d3c"
    d="M136 34 146 8c2-5-4-9-9-6l-16 8-2 22c8 2 14 2 17 2Z"
  />
  <path fill="#d4745c" opacity="0.7" d="M68 14c3 8 8 14 12 12s4-10 0-16l-12 4Zm56 0c-3 8-8 14-12 12s-4-10 0-16l12 4Z"/>

  <!-- Man -->
  <path
    fill="#4a3428"
    d="M62 42c-12 10-20 28-18 48 6-10 16-16 26-18-4-14 0-28 10-38l-18 8Zm12-10c12-8 28-8 40 0-8 16-6 34 8 48l-20 6c-14-12-22-32-24-52l-4-2Z"
  />

  <!-- Glada ögon -->
  <ellipse cx="84" cy="52" rx="8" ry="10" fill="#2d1f18"/>
  <ellipse cx="116" cy="52" rx="8" ry="10" fill="#2d1f18"/>
  <ellipse cx="86" cy="48" rx="3" ry="3.5" fill="#fff"/>
  <ellipse cx="118" cy="48" rx="3" ry="3.5" fill="#fff"/>

  <!-- Stort öppet leende -->
  <path
    fill="#4a3028"
    d="M76 70c2 16 18 28 40 26 14-1 26-12 28-26-10 8-24 12-38 10-12-1-22-5-30-10Z"
  />
  <path
    fill="#2d1f18"
    d="M82 78c8 10 20 14 32 10 8-2 14-8 16-14-10 6-22 8-34 6-6-1-12-2-14-2Z"
    opacity="0.25"
  />
  <ellipse cx="100" cy="88" rx="14" ry="8" fill="#d4745c" opacity="0.85"/>

  <!-- Rosiga kinder -->
  <ellipse cx="72" cy="64" rx="8" ry="5" fill="#e8a090" opacity="0.6"/>
  <ellipse cx="128" cy="64" rx="8" ry="5" fill="#e8a090" opacity="0.6"/>

  <!-- Näsborrar -->
  <ellipse cx="94" cy="72" rx="2.8" ry="2.2" fill="#4a3428" opacity="0.45"/>
  <ellipse cx="106" cy="72" rx="2.8" ry="2.2" fill="#4a3428" opacity="0.45"/>
</svg>
